<?xml version="1.0" encoding="UTF-8" standalone="no"?>
<svg
   viewBox="0 0 356.39003 605.19"
   version="1.1"
   id="svg58"
   sodipodi:docname="statiq-icon.svg"
   width="356.39005"
   height="605.19"
   inkscape:version="1.2.2 (732a01da63, 2022-12-09)"
   xmlns:inkscape="http://www.inkscape.org/namespaces/inkscape"
   xmlns:sodipodi="http://sodipodi.sourceforge.net/DTD/sodipodi-0.dtd"
   xmlns:xlink="http://www.w3.org/1999/xlink"
   xmlns="http://www.w3.org/2000/svg"
   xmlns:svg="http://www.w3.org/2000/svg">
  <sodipodi:namedview
     id="namedview60"
     pagecolor="#ffffff"
     bordercolor="#000000"
     borderopacity="0.25"
     inkscape:showpageshadow="2"
     inkscape:pageopacity="0.0"
     inkscape:pagecheckerboard="0"
     inkscape:deskcolor="#d1d1d1"
     showgrid="false"
     inkscape:zoom="0.77110335"
     inkscape:cx="786.53529"
     inkscape:cy="302.16442"
     inkscape:window-width="1920"
     inkscape:window-height="1017"
     inkscape:window-x="1912"
     inkscape:window-y="611"
     inkscape:window-maximized="1"
     inkscape:current-layer="g380" />
  <defs
     id="defs34">
    <style
       id="style2">.a{fill:url(#a);}.b{fill:url(#b);}.c{fill:url(#c);}.d{fill:url(#d);}.e{fill:#4d4d4d;}</style>
    <linearGradient
       id="a"
       x1="89.089996"
       x2="89.089996"
       y2="436.17001"
       gradientUnits="userSpaceOnUse">
      <stop
         offset="0"
         stop-color="#8fd7fd"
         id="stop4" />
      <stop
         offset="1"
         stop-color="#48bdfe"
         id="stop6" />
    </linearGradient>
    <linearGradient
       id="b"
       x1="267.25"
       y1="90.339996"
       x2="267.25"
       y2="605.19"
       gradientUnits="userSpaceOnUse">
      <stop
         offset="0"
         stop-color="#d792fd"
         id="stop9" />
      <stop
         offset="1"
         stop-color="#bf4bff"
         id="stop11" />
    </linearGradient>
    <linearGradient
       id="c"
       x1="178.23"
       y1="90.339996"
       x2="178.23"
       y2="436.17001"
       gradientUnits="userSpaceOnUse">
      <stop
         offset="0"
         stop-color="#ac83ff"
         id="stop14" />
      <stop
         offset="1"
         stop-color="#7849d8"
         id="stop16" />
    </linearGradient>
    <linearGradient
       id="d"
       x1="254.78"
       y1="473.72"
       x2="286.91"
       y2="413.29999"
       gradientUnits="userSpaceOnUse">
      <stop
         offset="0"
         stop-color="#a632e6"
         id="stop19" />
      <stop
         offset="0.07"
         stop-color="#a734e7"
         stop-opacity="0.97"
         id="stop21" />
      <stop
         offset="0.17"
         stop-color="#a938e8"
         stop-opacity="0.88"
         id="stop23" />
      <stop
         offset="0.29"
         stop-color="#ac40eb"
         stop-opacity="0.74"
         id="stop25" />
      <stop
         offset="0.43"
         stop-color="#b04bef"
         stop-opacity="0.55"
         id="stop27" />
      <stop
         offset="0.58"
         stop-color="#b659f4"
         stop-opacity="0.3"
         id="stop29" />
      <stop
         offset="0.73"
         stop-color="#bd69fa"
         stop-opacity="0"
         id="stop31" />
    </linearGradient>
    <clipPath
       clipPathUnits="userSpaceOnUse"
       id="clipPath201">
      <g
         id="g205">
        <g
           inkscape:label="Clip"
           id="use203"
           clip-path="none">
          <g
             id="g215">
            <path
               class="a"
               d="M 178.1,0 C 76.69,20.3 0,110.52 0,218.34 a 222.89,222.89 0 0 0 158.18,213.34 127.08,127.08 0 0 0 14.82,3.88 l 5.24,0.61"
               id="path207"
               style="fill:url(#linearGradient219)" />
            <path
               class="b"
               d="m 178.11,526.94 97.79,78.25 69.68,-61.66 -75.1,-59 a 222.77,222.77 0 0 0 85.91,-175.91 c 0,-103.77 -71,-191.24 -166.86,-215.76 -3.61,-1.05 -8.59,-1.83 -11.42,-2.56"
               id="path209"
               style="fill:url(#linearGradient221)" />
            <path
               class="c"
               d="m 178.11,90.34 a 133.94,133.94 0 0 0 0,252.59 v 93.24 a 133.87,133.87 0 0 0 89.48,-126.35 c 0,-58.64 -37.15,-107.78 -89.48,-126.27"
               id="path211"
               style="fill:url(#linearGradient223)" />
            <path
               class="d"
               d="M 270.48,484.57 A 224.53,224.53 0 0 0 303.35,453 L 233.79,398.75 A 133.76,133.76 0 0 1 198.53,427 l 113.61,90.92 0.4,-0.32 z"
               id="path213"
               style="fill:url(#linearGradient225)" />
          </g>
        </g>
      </g>
    </clipPath>
    <linearGradient
       inkscape:collect="always"
       xlink:href="#a"
       id="linearGradient219"
       gradientUnits="userSpaceOnUse"
       x1="89.089996"
       x2="89.089996"
       y2="436.17001" />
    <linearGradient
       inkscape:collect="always"
       xlink:href="#b"
       id="linearGradient221"
       gradientUnits="userSpaceOnUse"
       x1="267.25"
       y1="90.339996"
       x2="267.25"
       y2="605.19" />
    <linearGradient
       inkscape:collect="always"
       xlink:href="#c"
       id="linearGradient223"
       gradientUnits="userSpaceOnUse"
       x1="178.23"
       y1="90.339996"
       x2="178.23"
       y2="436.17001" />
    <linearGradient
       inkscape:collect="always"
       xlink:href="#d"
       id="linearGradient225"
       gradientUnits="userSpaceOnUse"
       x1="254.78"
       y1="473.72"
       x2="286.91"
       y2="413.29999" />
  </defs>
  <title
     id="title36">Asset 3</title>
  <g
     id="g380">
    <path
       class="a"
       d="M 178.1,0 C 76.69,20.3 0,110.52 0,218.34 a 222.89,222.89 0 0 0 158.18,213.34 127.08,127.08 0 0 0 14.82,3.88 l 5.24,0.61"
       id="path38"
       style="fill:url(#a)" />
    <path
       class="b"
       d="m 178.11,526.94 97.79,78.25 69.68,-61.66 -75.1,-59 a 222.77,222.77 0 0 0 85.91,-175.91 c 0,-103.77 -71,-191.24 -166.86,-215.76 -3.61,-1.05 -8.59,-1.83 -11.42,-2.56"
       id="path40"
       style="fill:url(#b)" />
    <path
       class="c"
       d="m 178.11,90.34 a 133.94,133.94 0 0 0 0,252.59 v 93.24 a 133.87,133.87 0 0 0 89.48,-126.35 c 0,-58.64 -37.15,-107.78 -89.48,-126.27"
       id="path42"
       style="fill:url(#c)" />
    <path
       class="d"
       d="M 270.48,484.57 A 224.53,224.53 0 0 0 303.35,453 L 233.79,398.75 A 133.76,133.76 0 0 1 198.53,427 l 113.61,90.92 0.4,-0.32 z"
       id="path44"
       style="fill:url(#d)" />
  </g>
</svg>
